<?xml version="1.0" encoding="utf-8"?>
<svg id="master-artboard" viewBox="0 0 329.451416015625 182.0531005859375" version="1.1" xmlns="http://www.w3.org/2000/svg" x="0px" y="0px" style="enable-background:new 0 0 1400 980;" width="329.451416015625px" height="182.0531005859375px"><defs><linearGradient id="gradient-0" gradientUnits="userSpaceOnUse" x1="506.3918914794922" y1="302.3662414550781" x2="506.3918914794922" y2="449.70001220703125">
                <stop offset="0" style="stop-color: #000000"/>
                <stop offset="1" style="stop-color: #000000"/>
              </linearGradient><linearGradient id="gradient-1" gradientUnits="userSpaceOnUse" x1="511.79998779296875" y1="393.79998779296875" x2="511.79998779296875" y2="430.5">
                <stop offset="0" style="stop-color: #284d3b"/>
                <stop offset="1" style="stop-color: #050a07"/>
              </linearGradient><linearGradient id="gradient-2" gradientUnits="userSpaceOnUse" x1="458.00938415527344" y1="341.5999755859375" x2="458.00938415527344" y2="417.8999938964844">
                <stop offset="0" style="stop-color: #000000"/>
                <stop offset="1" style="stop-color: #000000"/>
              </linearGradient><linearGradient id="gradient-3" gradientUnits="userSpaceOnUse" x1="446.4468231201172" y1="382.5256042480469" x2="446.4468231201172" y2="410.70001220703125">
                <stop offset="0" style="stop-color: #000000"/>
                <stop offset="1" style="stop-color: #000000"/>
              </linearGradient><linearGradient id="gradient-4" gradientUnits="userSpaceOnUse" x1="513.1000213623047" y1="330.6477355957031" x2="513.1000213623047" y2="343.1000061035156">
                <stop offset="0" style="stop-color: #000000"/>
                <stop offset="1" style="stop-color: #000000"/>
              </linearGradient><linearGradient id="gradient-5" gradientUnits="userSpaceOnUse" x1="523.8000183105469" y1="338.0477294921875" x2="523.8000183105469" y2="350.5">
                <stop offset="0" style="stop-color: #000000"/>
                <stop offset="1" style="stop-color: #000000"/>
              </linearGradient><linearGradient id="gradient-6" gradientUnits="userSpaceOnUse" x1="534.3999938964844" y1="345.34771728515625" x2="534.3999938964844" y2="357.79998779296875">
                <stop offset="0" style="stop-color: #000000"/>
                <stop offset="1" style="stop-color: #000000"/>
              </linearGradient><linearGradient id="gradient-7" gradientUnits="userSpaceOnUse" x1="545.0000305175781" y1="352.74774169921875" x2="545.0000305175781" y2="365.20001220703125">
                <stop offset="0" style="stop-color: #000000"/>
                <stop offset="1" style="stop-color: #000000"/>
              </linearGradient><linearGradient id="gradient-8" gradientUnits="userSpaceOnUse" x1="555.6999816894531" y1="360.0477294921875" x2="555.6999816894531" y2="372.5">
                <stop offset="0" style="stop-color: #000000"/>
                <stop offset="1" style="stop-color: #000000"/>
              </linearGradient></defs><rect id="ee-background" x="0" y="0" width="329.451416015625" height="182.0531005859375" style="fill: white; fill-opacity: 0; pointer-events: none;"/>
<g id="XMLID_424_" transform="matrix(1, 0, 0, 1, -339.3982238769531, -287.04426097869873)">
		<path id="XMLID_552_" d="M569.5,449.7c-14.7,0-32.1-1.4-54.4-3.9c-35.6-3.9-52-3.8-69.4-3.7c-10.2,0.1-20.8,0.1-35.7-0.6&#10;&#9;&#9;&#9;c-41.2-2.1-49.6-20.2-50-20.9c-0.4-0.8-0.3-1.8,0.1-2.5l13-22.9c0.2-0.4,0.5-0.7,0.9-0.9c11.6-8,12.4-21.8,12.4-26l-6.6-5.1&#10;&#9;&#9;&#9;c-1-0.8-1.4-2.1-0.9-3.3l7.9-19.8c0.3-0.7,0.8-1.3,1.6-1.6c0.7-0.3,1.5-0.3,2.2,0l3.9,1.7l1-4.3c0.2-0.9,0.9-1.7,1.8-2&#10;&#9;&#9;&#9;c0.1,0,8.4-3.1,16.1-6.9l0.6-0.3c7.6-3.8,12.6-6.3,18.9,3.9c3.8,6.2,14.4,19.8,28.9,12.8c13.3-6.4,3-32.1,2.9-32.3&#10;&#9;&#9;&#9;c-0.3-0.7-0.3-1.5,0-2.2c0.3-0.7,0.9-1.3,1.6-1.5c2.7-1,16.3-5.9,21.6-4.9c5.2,0.9,15,15.7,20.6,24.9c4.2,3,35.6,25.3,49.5,34.4&#10;&#9;&#9;&#9;c12.2,8.1,16,12.7,17.1,14.7c1.2,1,6.1,4.4,17.8,9.4c10.2,4.3,26.1,3.4,35.6,2.8c3.8-0.2,6.5-0.4,8.3-0.2&#10;&#9;&#9;&#9;c6.8,0.7,10.7,10.6,11.6,13.5c3.5,5.4,5.6,10,4.2,14.9c-1.7,6.4-9,12-26.8,20.8C608.5,446.2,592.4,449.7,569.5,449.7z&#10;&#9;&#9;&#9; M454.7,436.4c14.8,0,31.3,0.5,61,3.7c56.7,6.2,80.2,6,107.7-7.6c15.7-7.8,22.6-12.8,23.8-17.3c0.7-2.6-0.3-5.5-3.7-10.6&#10;&#9;&#9;&#9;c-0.1-0.2-0.2-0.4-0.3-0.7c-1.3-4-4.4-9.7-6.9-9.9c-1.3-0.1-4.1,0-7.4,0.2c-10,0.6-26.7,1.6-38.2-3.3&#10;&#9;&#9;&#9;c-14.8-6.2-19.3-10.3-19.8-10.7c-0.4-0.4-0.6-0.6-0.7-1.1c-0.4-0.6-3.1-4.7-15.3-12.8c-14.9-9.8-49.7-34.6-50.1-34.9&#10;&#9;&#9;&#9;c-0.3-0.2-0.6-0.5-0.8-0.8c-6.3-10.2-14.7-21.8-17.2-22.8c-2.3-0.4-9.9,1.7-15.9,3.8c2.6,7.8,8.4,29.5-6.7,36.8&#10;&#9;&#9;&#9;c-13,6.3-26.5,0.7-36.2-14.9c-3.6-5.8-4.2-5.5-11.6-1.8l-0.6,0.3c-6.1,3.1-12.5,5.6-15.2,6.7l-1.4,6.1c-0.2,0.8-0.7,1.5-1.5,1.9&#10;&#9;&#9;&#9;c-0.8,0.4-1.6,0.4-2.4,0.1l-4.4-1.9l-6,15.1l6,4.6c0.6,0.5,1,1.2,1.1,2c0.1,0.8,1.6,20.6-14.3,31.9l-11.9,20.9&#10;&#9;&#9;&#9;c2.6,3.6,13,14.9,44.4,16.5c14.7,0.7,25.2,0.7,35.3,0.6C448.7,436.5,451.7,436.4,454.7,436.4z" style="fill: rgb(40, 77, 59); fill-opacity: 1; stroke-opacity: 1; stroke: rgb(40, 77, 59); stroke-width: 2;"/>
	</g><path id="XMLID_551_" d="M582.3,430.5c-32.1,0-90.2-13.3-119.3-21.6c-26.5-7.6-50.9-3.4-51.2-3.3c-0.3,0.1-0.7,0.1-1,0l-35.7-6.2&#10;&#9;&#9;&#9;l1-5.6l35.3,6.1c3.8-0.6,27.2-3.9,53.2,3.5c28.8,8.3,86.1,21.4,117.7,21.4c28.1,0,51.8-10.5,56.7-12.8l4.3-10.1l5.2,2.2l-4.7,11&#10;&#9;&#9;&#9;c-0.3,0.6-0.7,1.1-1.3,1.4C641.4,417.2,615.1,430.5,582.3,430.5z" transform="matrix(1, 0, 0, 1, -339.3982238769531, -287.04426097869873)" style="fill-opacity: 1; stroke: rgb(40, 77, 59); fill: rgb(40, 77, 59); stroke-opacity: 1; stroke-width: 2;"/><path id="XMLID_550_" d="M503.7,417.9l-3.8-4.2l12.9-11.7l-117.4-55.3l2.4-5.1L519,398.7c0.9,0.4,1.5,1.2,1.6,2.1&#10;&#9;&#9;&#9;c0.1,0.9-0.2,1.9-0.9,2.5L503.7,417.9z" transform="matrix(1, 0, 0, 1, -339.3982238769531, -287.04426097869873)" style="fill: rgb(40, 77, 59); fill-opacity: 1; stroke-opacity: 1; stroke: rgb(40, 77, 59); stroke-width: 2;"/><path id="XMLID_549_" d="M476.2,410.7l-4.5-3.4l3.9-5.2l-33.1-13.6l-29.7,16.7l-2.8-4.9l30.9-17.4c0.8-0.4,1.7-0.5,2.5-0.2&#10;&#9;&#9;&#9;l37.7,15.5c0.8,0.3,1.4,1,1.7,1.9c0.2,0.8,0.1,1.8-0.5,2.5L476.2,410.7z" transform="matrix(1, 0, 0, 1, -339.3982238769531, -287.04426097869873)" style="fill: rgb(40, 77, 59); fill-opacity: 1; stroke-opacity: 1; stroke: rgb(40, 77, 59); stroke-width: 2;"/><path id="XMLID_548_" d="M508.5,343.1c-0.9,0-1.7-0.4-2.3-1.1c-0.9-1.3-0.7-3,0.6-4l9.2-6.8c1.3-0.9,3-0.7,4,0.6&#10;&#9;&#9;&#9;c0.9,1.3,0.7,3-0.6,4l-9.2,6.8C509.7,343,509.1,343.1,508.5,343.1z" transform="matrix(1, 0, 0, 1, -339.3982238769531, -287.04426097869873)" style="fill: rgb(40, 77, 59); fill-opacity: 1; stroke-opacity: 1; stroke: rgb(40, 77, 59); stroke-width: 2;"/><path id="XMLID_547_" d="M519.2,350.5c-0.9,0-1.7-0.4-2.3-1.1c-0.9-1.3-0.7-3,0.6-4l9.2-6.8c1.3-0.9,3-0.7,4,0.6&#10;&#9;&#9;&#9;c0.9,1.3,0.7,3-0.6,4l-9.2,6.8C520.4,350.3,519.8,350.5,519.2,350.5z" transform="matrix(1, 0, 0, 1, -339.3982238769531, -287.04426097869873)" style="fill: rgb(40, 77, 59); fill-opacity: 1; stroke-opacity: 1; stroke: rgb(40, 77, 59); stroke-width: 2;"/><path id="XMLID_546_" d="M529.8,357.8c-0.9,0-1.7-0.4-2.3-1.1c-0.9-1.3-0.7-3,0.6-4l9.2-6.8c1.3-0.9,3-0.7,4,0.6&#10;&#9;&#9;&#9;c0.9,1.3,0.7,3-0.6,4l-9.2,6.8C531,357.6,530.4,357.8,529.8,357.8z" transform="matrix(1, 0, 0, 1, -339.3982238769531, -287.04426097869873)" style="fill: rgb(40, 77, 59); fill-opacity: 1; stroke-opacity: 1; stroke: rgb(40, 77, 59); stroke-width: 2;"/><path id="XMLID_545_" d="M540.4,365.2c-0.9,0-1.7-0.4-2.3-1.1c-0.9-1.3-0.7-3,0.6-4l9.2-6.8c1.3-0.9,3-0.7,4,0.6&#10;&#9;&#9;&#9;c0.9,1.3,0.7,3-0.6,4l-9.2,6.8C541.6,365,541,365.2,540.4,365.2z" transform="matrix(1, 0, 0, 1, -339.3982238769531, -287.04426097869873)" style="fill: rgb(40, 77, 59); fill-opacity: 1; stroke-opacity: 1; stroke: rgb(40, 77, 59); stroke-width: 2;"/><path id="XMLID_544_" d="M551.1,372.5c-0.9,0-1.7-0.4-2.3-1.1c-0.9-1.3-0.7-3,0.6-4l9.2-6.8c1.3-0.9,3-0.7,4,0.6&#10;&#9;&#9;&#9;c0.9,1.3,0.7,3-0.6,4l-9.2,6.8C552.3,372.3,551.7,372.5,551.1,372.5z" transform="matrix(1, 0, 0, 1, -339.3982238769531, -287.04426097869873)" style="fill: rgb(40, 77, 59); fill-opacity: 1; stroke-opacity: 1; stroke: rgb(40, 77, 59); stroke-width: 2;"/>







</svg>